<?xml version="1.0" encoding="UTF-8"?>
<!-- 2013-12-10 12:15:16 Generated by QCAD SVG Exporter -->
<svg width="10in" height="10in" viewBox="0 -10 10 10" version="1.1" xmlns="http://www.w3.org/2000/svg" style="stroke-linecap:round;stroke-linejoin:round;fill:none">
    <g transform="scale(1,-1)">
        <!-- Line -->
        <path d="M0,0 L10,0 " style="stroke:#000000;stroke-width:0.00984251968503937;"/>
        <!-- Line -->
        <path d="M10,0 L10,10 " style="stroke:#000000;stroke-width:0.00984251968503937;"/>
        <!-- Line -->
        <path d="M10,10 L0,10 " style="stroke:#000000;stroke-width:0.00984251968503937;"/>
        <!-- Line -->
        <path d="M0,10 L0,0 " style="stroke:#000000;stroke-width:0.00984251968503937;"/>
        <!-- Leader -->
        <path d="M0,10 L0.10310623286907311,9.926329537572435 L0.07367046242756356,9.896893767130926 Z" style="stroke:#000000;stroke-width:0.00984251968503937;fill:#000000;fill-rule:evenodd;"/>
        <path d="M0,10 L2,8 " style="stroke:#000000;stroke-width:0.00984251968503937;"/>
        <!-- Text: X0 Y0 -->
        <g>
            <path d="M2.378300119230114,7 L2.2281553398058254,7.218616930676205 L2.0748594787940724,7 L2,7 L2.190172032021802,7.259751320047692 L2.0145631067961167,7.5 L2.089422585590189,7.5 L2.2284959972747402,7.303781297904957 L2.3637370124339974,7.5 L2.43859649122807,7.5 L2.267586441832737,7.262221086697326 L2.4531595980241865,7 L2.378300119230114,7 M2.844149207971385,7.250212910918072 C2.844149207971385,7.202180207801056 2.8395929143246468,7.161783909612218 2.8304803270311703,7.129024016351559 C2.8213677397376937,7.096264123090899 2.808947936183501,7.069763810821552 2.7932209163685915,7.049523079543519 C2.777493896553682,7.029282348265486 2.758984840742633,7.014790211775393 2.7376937489354454,7.006046670073241 C2.7164026571282576,6.997303128371089 2.6936921592005905,6.992931357520013 2.669562255152444,6.992931357520013 C2.645148469880202,6.992931357520013 2.6224237778913304,6.997303128371089 2.601388179185829,7.006046670073241 C2.5803525804803273,7.014790211775393 2.56208482370976,7.029211377959462 2.5465849088741273,7.049310168625447 C2.531084994038494,7.069408959291432 2.518892295463578,7.09585249531596 2.5100068131493782,7.128640776699029 C2.5011213308351787,7.161429058082098 2.4966785896780785,7.201953102821779 2.4966785896780785,7.250212910918072 C2.4966785896780785,7.300573440072673 2.5011213308351787,7.342261397831147 2.5100068131493782,7.375276784193494 C2.518892295463578,7.408292170555839 2.5311417702833134,7.434622154090729 2.5467552376085845,7.454266734798161 C2.5623687049338555,7.4739113155055925 2.580820984500085,7.487693748935445 2.602112076307273,7.495614035087719 C2.6234031681144607,7.503534321239993 2.646596264123091,7.50749446431613 2.671691364333163,7.50749446431613 C2.6955941634020326,7.50749446431613 2.718006586044399,7.503534321239993 2.7389286322602624,7.495614035087719 C2.7598506784761256,7.487693748935445 2.778118435246693,7.4739113155055925 2.793731902571964,7.454266734798161 C2.809345369897235,7.434622154090729 2.8216516209617897,7.408292170555839 2.830650655765628,7.375276784193494 C2.8396496905694657,7.342261397831147 2.844149207971385,7.300573440072673 2.844149207971385,7.250212910918072 M2.7791687957758473,7.250212910918072 C2.7791687957758473,7.289956282291489 2.776812581615852,7.323014250837449 2.772100153295861,7.349386816555953 C2.76738772497587,7.375759382274456 2.760418440924317,7.396809175041163 2.7511923011412023,7.412536194856072 C2.741966161358088,7.428263214670982 2.7306676886390733,7.439377164594334 2.7172968829841597,7.445878044626128 C2.7039260773292453,7.452378924657923 2.6887242377789136,7.45562936467382 2.671691364333163,7.45562936467382 C2.6536932947254868,7.45562936467382 2.637838528359734,7.452322148413104 2.624127065235905,7.445707715891671 C2.6104156021120763,7.439093283370238 2.5988758303525805,7.427922557202066 2.5895077499574177,7.4121955373871575 C2.5801396695622554,7.396468517572248 2.573099415204678,7.375418724805542 2.5683869868846876,7.349046159087038 C2.5636745585646965,7.322673593368535 2.561318344404701,7.289729177312212 2.561318344404701,7.250212910918072 C2.561318344404701,7.211888945665134 2.5637455288707205,7.179597456424232 2.568599897802759,7.153338443195367 C2.573454266734798,7.127079429966502 2.5805512973371942,7.1059586668937715 2.5898909896099473,7.089976153977176 C2.5992306818827005,7.07399364106058 2.610642707091353,7.0625106455459035 2.624127065235905,7.055527167433146 C2.6376114233804575,7.048543689320388 2.6529835916652473,7.04505195026401 2.6702435700902742,7.04505195026401 C2.687049338556748,7.04505195026401 2.702194401862261,7.048543689320388 2.715678760006813,7.055527167433146 C2.729163118151366,7.0625106455459035 2.7405751433600183,7.07399364106058 2.7499148356327714,7.089976153977176 C2.759254527905524,7.1059586668937715 2.766465110997559,7.127079429966502 2.771546584908874,7.153338443195367 C2.7766280588201897,7.179597456424232 2.7791687957758473,7.211888945665134 2.7791687957758473,7.250212910918072 M3.339124510304888,7.207290069834781 L3.339124510304888,7 L3.2716743314597174,7 L3.2716743314597174,7.207290069834781 L3.079373190257196,7.5 L3.1538920115823537,7.5 L3.3060807358201325,7.261880429228411 L3.45767330948731,7.5 L3.5321921308124677,7.5 L3.339124510304888,7.207290069834781 M3.9238630556974963,7.250212910918072 C3.9238630556974963,7.202180207801056 3.919306762050758,7.161783909612218 3.9101941747572813,7.129024016351559 C3.901081587463805,7.096264123090899 3.8886617839096123,7.069763810821552 3.872934764094703,7.049523079543519 C3.857207744279793,7.029282348265486 3.8386986884687446,7.014790211775393 3.817407596661557,7.006046670073241 C3.7961165048543686,6.997303128371089 3.7734060069267015,6.992931357520013 3.7492761028785555,6.992931357520013 C3.7248623176063136,6.992931357520013 3.702137625617442,6.997303128371089 3.68110202691194,7.006046670073241 C3.6600664282064383,7.014790211775393 3.641798671435871,7.029211377959462 3.6262987566002387,7.049310168625447 C3.6107988417646055,7.069408959291432 3.598606143189689,7.09585249531596 3.5897206608754897,7.128640776699029 C3.5808351785612897,7.161429058082098 3.57639243740419,7.201953102821779 3.57639243740419,7.250212910918072 C3.57639243740419,7.300573440072673 3.5808351785612897,7.342261397831147 3.5897206608754897,7.375276784193494 C3.598606143189689,7.408292170555839 3.610855618009425,7.434622154090729 3.626469085334696,7.454266734798161 C3.642082552659967,7.4739113155055925 3.6605348322261966,7.487693748935445 3.6818259240333844,7.495614035087719 C3.703117015840572,7.503534321239993 3.726310111849202,7.50749446431613 3.7514052120592742,7.50749446431613 C3.775308011128144,7.50749446431613 3.79772043377051,7.503534321239993 3.818642479986374,7.495614035087719 C3.839564526202237,7.487693748935445 3.8578322829728044,7.4739113155055925 3.8734457502980755,7.454266734798161 C3.8890592176233465,7.434622154090729 3.901365468687901,7.408292170555839 3.910364503491739,7.375276784193494 C3.919363538295577,7.342261397831147 3.9238630556974963,7.300573440072673 3.9238630556974963,7.250212910918072 M3.8588826435019588,7.250212910918072 C3.8588826435019588,7.289956282291489 3.8565264293419634,7.323014250837449 3.8518140010219724,7.349386816555953 C3.8471015727019813,7.375759382274456 3.8401322886504285,7.396809175041163 3.8309061488673137,7.412536194856072 C3.821680009084199,7.428263214670982 3.8103815363651847,7.439377164594334 3.7970107307102707,7.445878044626128 C3.7836399250553567,7.452378924657923 3.7684380855050246,7.45562936467382 3.7514052120592742,7.45562936467382 C3.733407142451598,7.45562936467382 3.7175523760858455,7.452322148413104 3.7038409129620167,7.445707715891671 C3.690129449838188,7.439093283370238 3.6785896780786915,7.427922557202066 3.669221597683529,7.4121955373871575 C3.6598535172883664,7.396468517572248 3.6528132629307897,7.375418724805542 3.6481008346107986,7.349046159087038 C3.643388406290808,7.322673593368535 3.6410321921308126,7.289729177312212 3.6410321921308126,7.250212910918072 C3.6410321921308126,7.211888945665134 3.643459376596832,7.179597456424232 3.6483137455288706,7.153338443195367 C3.653168114460909,7.127079429966502 3.6602651450633052,7.1059586668937715 3.669604837336059,7.089976153977176 C3.6789445296088115,7.07399364106058 3.6903565548174644,7.0625106455459035 3.7038409129620167,7.055527167433146 C3.717325271106569,7.048543689320388 3.732697439391359,7.04505195026401 3.7499574178163853,7.04505195026401 C3.766763186282859,7.04505195026401 3.7819082495883722,7.048543689320388 3.7953926077329245,7.055527167433146 C3.8088769658774764,7.0625106455459035 3.8202889910861293,7.07399364106058 3.829628683358883,7.089976153977176 C3.8389683756316355,7.1059586668937715 3.84617895872367,7.127079429966502 3.8512604326349855,7.153338443195367 C3.856341906546301,7.179597456424232 3.8588826435019588,7.211888945665134 3.8588826435019588,7.250212910918072 " style="fill:#000000;fill-rule:evenodd;"/>
        </g>
    </g>
</svg>
